HIERARCHY
ROOT Hips
{
	OFFSET 0.000000 0.000000 0.000000
	CHANNELS 6 Xposition Yposition Zposition Xrotation Yrotation Zrotation
	JOINT LeftUpLeg_virtual
	{
		OFFSET 0.000000 0.000000 0.000000
		CHANNELS 3 Xrotation Yrotation Zrotation
		JOINT LeftUpLeg
		{
			OFFSET 11.394100 -6.187798 -0.413800
			CHANNELS 3 Xrotation Yrotation Zrotation
			JOINT LeftLeg
			{
				OFFSET 0.430247 -32.302673 3.732800
				CHANNELS 3 Xrotation Yrotation Zrotation
				JOINT LeftFoot
				{
					OFFSET -0.430247 -48.264931 -6.423300
					CHANNELS 3 Xrotation Yrotation Zrotation
					JOINT LeftToeBase
					{
						OFFSET 4.230900 -16.068199 23.438400
						CHANNELS 3 Xrotation Yrotation Zrotation
						JOINT LeftToe_End
						{
							OFFSET 4.510700 0.695400 19.974600
							CHANNELS 3 Xrotation Yrotation Zrotation
							End Site
							{
								OFFSET 0 0 0
							}
						}
					}
				}
			}
		}
	}
	JOINT RightUpLeg_virtual
	{
		OFFSET 0.000000 0.000000 0.000000
		CHANNELS 3 Xrotation Yrotation Zrotation
		JOINT RightUpLeg
		{
			OFFSET -11.333700 -6.187798 -0.413800
			CHANNELS 3 Xrotation Yrotation Zrotation
			JOINT RightLeg
			{
				OFFSET -0.430392 -32.302628 3.733000
				CHANNELS 3 Xrotation Yrotation Zrotation
				JOINT RightFoot
				{
					OFFSET 0.430392 -48.264973 -6.423500
					CHANNELS 3 Xrotation Yrotation Zrotation
					JOINT RightToeBase
					{
						OFFSET -4.230900 -16.068199 23.438400
						CHANNELS 3 Xrotation Yrotation Zrotation
						JOINT RightToe_End
						{
							OFFSET -4.510700 0.695400 19.974600
							CHANNELS 3 Xrotation Yrotation Zrotation
							End Site
							{
								OFFSET 0 0 0
							}
						}
					}
				}
			}
		}
	}
	JOINT Spine_virtual
	{
		OFFSET 0.000000 0.000000 0.000000
		CHANNELS 3 Xrotation Yrotation Zrotation
		JOINT Spine
		{
			OFFSET -0.002400 12.777504 0.315300
			CHANNELS 3 Xrotation Yrotation Zrotation
			JOINT Spine1
			{
				OFFSET -0.002067 5.816869 0.032633
				CHANNELS 3 Xrotation Yrotation Zrotation
				JOINT Spine1_split
				{
					OFFSET -0.002067 5.816869 0.032633
					CHANNELS 3 Xrotation Yrotation Zrotation
					JOINT Spine2
					{
						OFFSET -0.002067 5.816869 0.032633
						CHANNELS 3 Xrotation Yrotation Zrotation
						JOINT Neck_virtual
						{
							OFFSET 0.000000 0.000000 0.000000
							CHANNELS 3 Xrotation Yrotation Zrotation
							JOINT Neck
							{
								OFFSET -0.003700 21.199493 -0.826900
								CHANNELS 3 Xrotation Yrotation Zrotation
								JOINT Head
								{
									OFFSET 0.000000 20.442200 4.834800
									CHANNELS 3 Xrotation Yrotation Zrotation
									JOINT HeadTop_End
									{
										OFFSET 0.000000 34.668396 4.968400
										CHANNELS 3 Xrotation Yrotation Zrotation
										End Site
										{
											OFFSET 0 0 0
										}
									}
								}
							}
						}
						JOINT LeftShoulder_virtual
						{
							OFFSET 0.000000 0.000000 0.000000
							CHANNELS 3 Xrotation Yrotation Zrotation
							JOINT LeftShoulder
							{
								OFFSET 3.288150 8.794197 -1.372250
								CHANNELS 3 Xrotation Yrotation Zrotation
								JOINT LeftShoulder_split
								{
									OFFSET 3.288150 8.794197 -1.372250
									CHANNELS 3 Xrotation Yrotation Zrotation
									JOINT LeftArm
									{
										OFFSET 11.953299 -2.279007 -0.146200
										CHANNELS 3 Xrotation Yrotation Zrotation
										JOINT LeftForeArm
										{
											OFFSET 18.448900 0.000000 0.000000
											CHANNELS 3 Xrotation Yrotation Zrotation
											JOINT LeftHand
											{
												OFFSET 29.527798 0.000000 0.000000
												CHANNELS 3 Xrotation Yrotation Zrotation
												End Site
												{
													OFFSET 0 0 0
												}
											}
										}
									}
								}
							}
						}
						JOINT RightShoulder_virtual
						{
							OFFSET 0.000000 0.000000 0.000000
							CHANNELS 3 Xrotation Yrotation Zrotation
							JOINT RightShoulder
							{
								OFFSET -3.249400 8.794197 -1.372250
								CHANNELS 3 Xrotation Yrotation Zrotation
								JOINT RightShoulder_split
								{
									OFFSET -3.249400 8.794197 -1.372250
									CHANNELS 3 Xrotation Yrotation Zrotation
									JOINT RightArm
									{
										OFFSET -11.953299 -2.279007 -0.146200
										CHANNELS 3 Xrotation Yrotation Zrotation
										JOINT RightForeArm
										{
											OFFSET -18.448900 0.000000 0.000000
											CHANNELS 3 Xrotation Yrotation Zrotation
											JOINT RightHand
											{
												OFFSET -29.527802 0.000000 0.000000
												CHANNELS 3 Xrotation Yrotation Zrotation
												End Site
												{
													OFFSET 0 0 0
												}
											}
										}
									}
								}
							}
						}
					}
				}
			}
		}
	}
}
MOTION
Frames: 10
Frame Time: 0.03333333
4.025071 103.035309 -8.248041 0.000000 0.000000 0.000000 -3.188559 0.208388 1.511932 -10.471345 11.933203 6.514345 14.840164 5.504331 3.412841 -1.570308 7.945875 -13.098178 4.093235 -4.838910 0.216271 0.000000 0.000000 0.000000 -3.121963 0.219744 1.562484 -5.393355 -12.232430 -3.256549 15.143913 -2.572971 -2.498954 -8.764067 -11.907364 10.281959 3.520794 4.755661 -10.243495 0.000000 0.000000 0.000000 -3.592093 2.500954 1.551423 1.410620 0.816659 -1.376057 0.131443 -1.027566 0.330556 0.122521 -0.304720 -0.017984 0.000000 0.000000 0.000000 0.906696 1.211061 -0.202210 1.946874 4.250854 3.250865 0.852617 -14.530783 -10.035751 0.000000 0.000000 0.000000 -0.407103 -0.328433 -0.349733 1.924032 -8.297137 -11.723314 0.251396 -2.210017 -3.478698 -3.208518 -3.481211 -58.630398 2.632281 -19.157157 -3.374059 0.000000 0.000000 0.000000 0.397777 -0.164395 0.070222 3.012420 -3.459382 14.321846 -5.945545 -0.568242 0.371386 2.840710 5.391984 64.290740 -4.217520 18.047972 4.586807 0.000000 0.000000 0.000000 
4.059627 103.063942 -8.461824 0.000000 0.000000 0.000000 -3.289339 0.230158 1.530524 -10.655256 11.916768 6.531429 14.874123 5.520708 3.421864 -1.399933 7.781742 -13.135882 4.113597 -4.812148 0.144580 0.000000 0.000000 0.000000 -3.222788 0.298944 1.579487 -5.215293 -12.170000 -3.230891 15.009407 -2.584747 -2.507750 -8.704455 -11.959121 10.287464 3.730895 4.710939 -10.214386 0.000000 0.000000 0.000000 -3.718643 2.679886 1.623409 1.518372 0.918279 -1.298310 0.190594 -0.968735 0.299604 0.133137 -0.256908 0.001300 0.000000 0.000000 0.000000 0.842371 1.243391 -0.202110 1.929191 4.174085 3.307048 0.749818 -14.750220 -9.916932 0.000000 0.000000 0.000000 -0.401803 -0.269968 -0.408185 1.897043 -8.035696 -11.874030 0.107693 -1.698832 -3.696625 -2.250732 -2.725094 -58.466098 2.721911 -18.172675 -3.308705 0.000000 0.000000 0.000000 0.429245 -0.087652 0.021498 2.921293 -3.218236 14.240768 -6.152496 0.036358 0.274478 1.980563 5.890639 64.288493 -4.176930 18.833436 4.433897 0.000000 0.000000 0.000000 
4.041313 103.038712 -8.737665 0.000000 0.000000 0.000000 -3.486270 0.559817 1.658566 -11.035221 11.861114 6.501437 15.145079 5.537955 3.394654 -1.283070 7.448738 -12.950855 4.234018 -4.777216 0.156772 0.000000 0.000000 0.000000 -3.418981 0.730251 1.692558 -4.982608 -12.052121 -3.226743 15.206098 -2.642641 -2.493259 -8.822900 -12.188442 10.283933 3.749652 4.661834 -10.308709 0.000000 0.000000 0.000000 -4.009526 3.104582 1.752878 1.800569 1.059523 -1.159604 0.234055 -0.862002 0.238886 0.143799 -0.253999 0.011630 0.000000 0.000000 0.000000 0.766291 1.327260 -0.232166 1.887912 4.087624 3.403010 0.549266 -15.265061 -9.804997 0.000000 0.000000 0.000000 -0.390354 -0.170351 -0.504485 1.880693 -7.757095 -11.958096 -0.133287 -1.449752 -3.650504 -0.954843 -1.410818 -58.456898 2.735787 -16.921063 -3.270071 0.000000 0.000000 0.000000 0.467762 0.044333 -0.057215 2.804636 -2.793792 14.137274 -6.004195 0.111191 0.318852 0.722977 6.901223 64.204632 -4.054094 19.895337 4.207686 0.000000 0.000000 0.000000 
3.975262 102.973076 -9.028185 0.000000 0.000000 0.000000 -3.740072 1.141102 1.864866 -11.527589 11.773605 6.421932 15.627198 5.535305 3.349097 -1.253362 6.982976 -12.590184 4.473048 -4.734710 0.247887 0.000000 0.000000 0.000000 -3.687815 1.419253 1.885316 -4.689324 -11.876234 -3.235274 15.609069 -2.742214 -2.468007 -9.177626 -12.584133 10.226719 3.664099 4.605696 -10.501923 0.000000 0.000000 0.000000 -4.416087 3.701515 1.923933 2.196741 1.214662 -1.004104 0.255353 -0.726074 0.164234 0.152079 -0.276293 0.005829 0.000000 0.000000 0.000000 0.702930 1.447970 -0.280481 1.816026 4.007200 3.509402 0.267869 -16.005102 -9.733643 0.000000 0.000000 0.000000 -0.377020 -0.042995 -0.609760 1.889287 -7.466728 -11.942243 -0.285680 -1.502047 -3.429538 0.430369 0.237226 -58.567267 2.679308 -15.791809 -3.249250 0.000000 0.000000 0.000000 0.507516 0.207418 -0.140391 2.674826 -2.265537 14.059383 -5.587223 -0.257163 0.516309 -0.639546 8.091663 64.079250 -3.859263 21.065789 3.947443 0.000000 0.000000 0.000000 
3.895139 102.878059 -9.339880 0.000000 0.000000 0.000000 -4.018115 1.873498 2.106028 -12.060392 11.673601 6.317727 16.245082 5.492970 3.305048 -1.310547 6.419916 -12.156958 4.805237 -4.680334 0.408604 0.000000 0.000000 0.000000 -3.995677 2.234213 2.116846 -4.370586 -11.647298 -3.231156 16.109278 -2.890636 -2.438523 -9.726339 -13.130587 10.050443 3.642744 4.539137 -10.760294 0.000000 0.000000 0.000000 -4.891094 4.395995 2.125440 2.633802 1.352007 -0.873629 0.253315 -0.577390 0.093501 0.159060 -0.297303 0.004510 0.000000 0.000000 0.000000 0.668314 1.592209 -0.324850 1.712750 3.938388 3.597683 -0.054395 -16.869775 -9.737153 0.000000 0.000000 0.000000 -0.372170 0.103007 -0.701848 1.926635 -7.152815 -11.862270 -0.288420 -1.611963 -3.126380 1.778796 2.082884 -58.823235 2.581697 -14.877911 -3.245367 0.000000 0.000000 0.000000 0.540582 0.379186 -0.204701 2.567859 -1.700414 14.028366 -5.066575 -0.667947 0.705681 -1.910455 9.173097 63.978764 -3.644560 22.312551 3.727266 0.000000 0.000000 0.000000 
3.814456 102.769806 -9.618818 0.000000 0.000000 0.000000 -4.292496 2.619427 2.341262 -12.507317 11.586837 6.199335 16.880449 5.426803 3.273843 -1.474950 5.833879 -11.695542 5.162874 -4.614499 0.632179 0.000000 0.000000 0.000000 -4.302882 3.055073 2.348806 -4.084760 -11.395360 -3.206561 16.620272 -3.072234 -2.399533 -10.299095 -13.781636 9.787125 3.746585 4.468660 -11.046254 0.000000 0.000000 0.000000 -5.354679 5.116259 2.333860 3.042714 1.446474 -0.796666 0.222071 -0.430320 0.047881 0.170739 -0.318808 -0.004872 0.000000 0.000000 0.000000 0.645224 1.746603 -0.343499 1.572428 3.887657 3.646621 -0.368981 -17.787768 -9.824915 0.000000 0.000000 0.000000 -0.381763 0.255271 -0.752752 1.987582 -6.804039 -11.713488 -0.249513 -1.718863 -2.912048 3.018118 3.875730 -59.197250 2.449899 -14.148509 -3.248211 0.000000 0.000000 0.000000 0.562205 0.542307 -0.231868 2.505651 -1.158157 14.042093 -4.531797 -0.893656 0.863544 -2.957299 9.952759 63.934928 -3.465791 23.607570 3.614654 0.000000 0.000000 0.000000 
3.738782 102.677353 -9.862226 0.000000 0.000000 0.000000 -4.549951 3.278696 2.536724 -12.836709 11.516647 6.077669 17.457426 5.354372 3.264803 -1.731240 5.278374 -11.253314 5.516351 -4.532515 0.887379 0.000000 0.000000 0.000000 -4.588400 3.794098 2.551547 -3.882244 -11.152925 -3.158134 17.109417 -3.267353 -2.355851 -10.720036 -14.492114 9.524780 3.887522 4.412156 -11.338660 0.000000 0.000000 0.000000 -5.771159 5.823722 2.530269 3.391415 1.491856 -0.779792 0.167848 -0.291840 0.038156 0.182140 -0.330266 -0.002570 0.000000 0.000000 0.000000 0.629891 1.896453 -0.322428 1.393556 3.852342 3.646210 -0.639625 -18.722397 -9.995867 0.000000 0.000000 0.000000 -0.402251 0.401943 -0.754666 2.055932 -6.433254 -11.524456 -0.216427 -1.776214 -2.847606 4.192900 5.479505 -59.631069 2.316846 -13.533966 -3.212783 0.000000 0.000000 0.000000 0.561995 0.687820 -0.222028 2.467989 -0.653867 14.057372 -4.030118 -0.886396 0.981026 -3.819995 10.354856 63.955269 -3.361113 24.928717 3.626737 0.000000 0.000000 0.000000 
3.676600 102.600945 -10.080709 0.000000 0.000000 0.000000 -4.789471 3.797666 2.686679 -13.041516 11.462242 5.978316 17.948965 5.292761 3.270701 -2.065079 4.792579 -10.851697 5.850053 -4.431812 1.135541 0.000000 0.000000 0.000000 -4.838994 4.385574 2.704205 -3.782487 -10.928796 -3.085058 17.525533 -3.452001 -2.321669 -10.920618 -15.216336 9.321796 3.964157 4.379146 -11.616653 0.000000 0.000000 0.000000 -6.108079 6.457014 2.701119 3.664699 1.498741 -0.813477 0.107457 -0.165064 0.062212 0.180844 -0.328869 0.008016 0.000000 0.000000 0.000000 0.599391 2.032086 -0.264278 1.183930 3.832024 3.592216 -0.848178 -19.602547 -10.221687 0.000000 0.000000 0.000000 -0.422732 0.536831 -0.717242 2.117948 -6.076900 -11.302031 -0.181059 -1.732615 -2.959065 5.293836 6.827885 -60.117351 2.180258 -12.991214 -3.109041 0.000000 0.000000 0.000000 0.545191 0.819425 -0.183141 2.459316 -0.204135 14.029678 -3.664169 -0.727154 1.102270 -4.492112 10.537473 63.992800 -3.361923 26.216510 3.785141 0.000000 0.000000 0.000000 
3.638173 102.544220 -10.292730 0.000000 0.000000 0.000000 -5.007864 4.175873 2.796216 -13.136866 11.409057 5.902947 18.361963 5.248618 3.286242 -2.440942 4.409101 -10.497220 6.154950 -4.319526 1.357706 0.000000 0.000000 0.000000 -5.053778 4.803086 2.804944 -3.758702 -10.744051 -3.000934 17.847407 -3.611591 -2.301830 -10.945988 -15.902301 9.181146 3.982590 4.369136 -11.858329 0.000000 0.000000 0.000000 -6.336362 6.991085 2.847212 3.874940 1.484884 -0.869865 0.044301 -0.056715 0.109514 0.169431 -0.312099 0.010388 0.000000 0.000000 0.000000 0.531820 2.142480 -0.185274 0.935887 3.827889 3.493277 -0.992998 -20.377917 -10.466329 0.000000 0.000000 0.000000 -0.436760 0.650593 -0.654425 2.161417 -5.766467 -11.049761 -0.115062 -1.627938 -3.169205 6.293307 7.880557 -60.653767 2.048993 -12.553811 -2.913682 0.000000 0.000000 0.000000 0.532201 0.936312 -0.126174 2.469142 0.182283 13.945365 -3.502447 -0.533975 1.299369 -4.959337 10.707548 63.977931 -3.456878 27.399700 4.076722 0.000000 0.000000 0.000000 
3.621599 102.495850 -10.511629 0.000000 0.000000 0.000000 -5.209431 4.453437 2.880555 -13.200643 11.327260 5.838370 18.750807 5.191629 3.311716 -2.797547 4.110789 -10.244936 6.402131 -4.202404 1.544160 0.000000 0.000000 0.000000 -5.238785 5.054996 2.875620 -3.799626 -10.609447 -2.906379 18.154315 -3.751789 -2.291349 -10.943048 -16.519485 9.038986 4.004143 4.378322 -12.032898 0.000000 0.000000 0.000000 -6.489167 7.438404 2.975723 4.070485 1.461193 -0.923869 -0.011517 0.031841 0.161604 0.162429 -0.272700 0.008813 0.000000 0.000000 0.000000 0.444816 2.224531 -0.105504 0.664680 3.837828 3.371558 -1.068481 -20.997007 -10.691912 0.000000 0.000000 0.000000 -0.438021 0.738439 -0.588157 2.182818 -5.523097 -10.786978 0.014668 -1.461085 -3.284630 7.242970 8.646052 -61.268170 1.955210 -12.338910 -2.637186 0.000000 0.000000 0.000000 0.538293 1.033296 -0.070874 2.485041 0.510439 13.802854 -3.415198 -0.354651 1.496968 -5.210034 11.023224 63.854216 -3.641607 28.511132 4.474104 0.000000 0.000000 0.000000 
